<mxfile host="Electron" modified="2024-07-11T12:02:35.146Z" agent="Mozilla/5.0 (Windows NT 10.0; Win64; x64) AppleWebKit/537.36 (KHTML, like Gecko) draw.io/24.5.3 Chrome/124.0.6367.207 Electron/30.0.6 Safari/537.36" etag="v3bpgmYm1pozzXPFYvVO" version="24.5.3" type="device">
  <diagram name="Page-1" id="btcpCZB6vtGhu5WBstjq">
    <mxGraphModel dx="1050" dy="621" grid="1" gridSize="10" guides="1" tooltips="1" connect="1" arrows="1" fold="1" page="1" pageScale="1" pageWidth="750" pageHeight="950" math="0" shadow="0">
      <root>
        <mxCell id="0" />
        <mxCell id="1" parent="0" />
        <mxCell id="Rh9CGznedd6ik9ucD9in-6" value="" style="edgeStyle=orthogonalEdgeStyle;rounded=0;orthogonalLoop=1;jettySize=auto;html=1;endArrow=block;endFill=0;entryX=0;entryY=0.5;entryDx=0;entryDy=0;" parent="1" source="Rh9CGznedd6ik9ucD9in-2" edge="1" target="Rh9CGznedd6ik9ucD9in-7">
          <mxGeometry relative="1" as="geometry">
            <mxPoint x="425" y="120" as="targetPoint" />
          </mxGeometry>
        </mxCell>
        <mxCell id="Rh9CGznedd6ik9ucD9in-2" value="" style="ellipse;fillColor=strokeColor;html=1;" parent="1" vertex="1">
          <mxGeometry x="196.25" y="125" width="20" height="20" as="geometry" />
        </mxCell>
        <mxCell id="Rh9CGznedd6ik9ucD9in-13" style="edgeStyle=orthogonalEdgeStyle;rounded=0;orthogonalLoop=1;jettySize=auto;html=1;exitX=1;exitY=0.5;exitDx=0;exitDy=0;entryX=0;entryY=0.5;entryDx=0;entryDy=0;endArrow=block;endFill=0;" parent="1" source="Rh9CGznedd6ik9ucD9in-7" target="Rh9CGznedd6ik9ucD9in-12" edge="1">
          <mxGeometry relative="1" as="geometry" />
        </mxCell>
        <mxCell id="Rh9CGznedd6ik9ucD9in-7" value="Upload Pan Card" style="html=1;align=center;verticalAlign=top;rounded=1;absoluteArcSize=1;arcSize=52;dashed=0;whiteSpace=wrap;" parent="1" vertex="1">
          <mxGeometry x="265" y="120" width="140" height="30" as="geometry" />
        </mxCell>
        <mxCell id="Rh9CGznedd6ik9ucD9in-17" style="edgeStyle=orthogonalEdgeStyle;rounded=0;orthogonalLoop=1;jettySize=auto;html=1;exitX=0.5;exitY=0;exitDx=0;exitDy=0;jumpStyle=none;endArrow=block;endFill=0;entryX=0.5;entryY=0;entryDx=0;entryDy=0;" parent="1" source="Rh9CGznedd6ik9ucD9in-12" target="Rh9CGznedd6ik9ucD9in-7" edge="1">
          <mxGeometry relative="1" as="geometry">
            <Array as="points">
              <mxPoint x="610" y="80" />
              <mxPoint x="335" y="80" />
            </Array>
            <mxPoint x="405" y="130" as="targetPoint" />
          </mxGeometry>
        </mxCell>
        <mxCell id="Rh9CGznedd6ik9ucD9in-29" style="edgeStyle=orthogonalEdgeStyle;rounded=0;orthogonalLoop=1;jettySize=auto;html=1;exitX=0.5;exitY=1;exitDx=0;exitDy=0;entryX=0.5;entryY=0;entryDx=0;entryDy=0;endArrow=block;endFill=0;" parent="1" source="Rh9CGznedd6ik9ucD9in-12" target="Rh9CGznedd6ik9ucD9in-21" edge="1">
          <mxGeometry relative="1" as="geometry">
            <Array as="points">
              <mxPoint x="610" y="180" />
              <mxPoint x="335" y="180" />
            </Array>
          </mxGeometry>
        </mxCell>
        <mxCell id="Rh9CGznedd6ik9ucD9in-12" value="Is Valid?" style="rhombus;whiteSpace=wrap;html=1;" parent="1" vertex="1">
          <mxGeometry x="570" y="95" width="80" height="80" as="geometry" />
        </mxCell>
        <mxCell id="Rh9CGznedd6ik9ucD9in-19" value="No" style="text;html=1;align=center;verticalAlign=middle;whiteSpace=wrap;rounded=0;" parent="1" vertex="1">
          <mxGeometry x="612.25" y="90" width="45" height="20" as="geometry" />
        </mxCell>
        <mxCell id="Rh9CGznedd6ik9ucD9in-20" value="Start" style="text;html=1;align=center;verticalAlign=middle;whiteSpace=wrap;rounded=0;" parent="1" vertex="1">
          <mxGeometry x="150" y="95" width="60" height="30" as="geometry" />
        </mxCell>
        <mxCell id="Rh9CGznedd6ik9ucD9in-30" style="edgeStyle=orthogonalEdgeStyle;rounded=0;orthogonalLoop=1;jettySize=auto;html=1;exitX=0.5;exitY=1;exitDx=0;exitDy=0;entryX=0.5;entryY=0;entryDx=0;entryDy=0;endArrow=block;endFill=0;" parent="1" source="Rh9CGznedd6ik9ucD9in-21" target="Rh9CGznedd6ik9ucD9in-23" edge="1">
          <mxGeometry relative="1" as="geometry" />
        </mxCell>
        <mxCell id="Rh9CGznedd6ik9ucD9in-21" value="Upload Mortgage Documents" style="html=1;align=center;verticalAlign=top;rounded=1;absoluteArcSize=1;arcSize=52;dashed=0;whiteSpace=wrap;" parent="1" vertex="1">
          <mxGeometry x="237.5" y="200" width="195" height="30" as="geometry" />
        </mxCell>
        <mxCell id="Rh9CGznedd6ik9ucD9in-32" style="edgeStyle=orthogonalEdgeStyle;rounded=0;orthogonalLoop=1;jettySize=auto;html=1;exitX=0.5;exitY=1;exitDx=0;exitDy=0;entryX=0.5;entryY=0;entryDx=0;entryDy=0;endArrow=block;endFill=0;" parent="1" source="Rh9CGznedd6ik9ucD9in-23" target="Rh9CGznedd6ik9ucD9in-31" edge="1">
          <mxGeometry relative="1" as="geometry" />
        </mxCell>
        <mxCell id="Rh9CGznedd6ik9ucD9in-23" value="Upload Valuation Certificate" style="html=1;align=center;verticalAlign=top;rounded=1;absoluteArcSize=1;arcSize=52;dashed=0;whiteSpace=wrap;" parent="1" vertex="1">
          <mxGeometry x="240" y="250" width="190" height="30" as="geometry" />
        </mxCell>
        <mxCell id="Rh9CGznedd6ik9ucD9in-25" value="Yes" style="text;html=1;align=center;verticalAlign=middle;whiteSpace=wrap;rounded=0;" parent="1" vertex="1">
          <mxGeometry x="612.25" y="175" width="45" height="20" as="geometry" />
        </mxCell>
        <mxCell id="Rh9CGznedd6ik9ucD9in-34" style="edgeStyle=orthogonalEdgeStyle;rounded=0;orthogonalLoop=1;jettySize=auto;html=1;entryX=0;entryY=0.5;entryDx=0;entryDy=0;endArrow=block;endFill=0;" parent="1" target="Rh9CGznedd6ik9ucD9in-33" edge="1">
          <mxGeometry relative="1" as="geometry">
            <Array as="points">
              <mxPoint x="335" y="370" />
            </Array>
            <mxPoint x="335" y="330" as="sourcePoint" />
          </mxGeometry>
        </mxCell>
        <mxCell id="Rh9CGznedd6ik9ucD9in-31" value="Enter Loan Amount" style="html=1;align=center;verticalAlign=top;rounded=1;absoluteArcSize=1;arcSize=52;dashed=0;whiteSpace=wrap;" parent="1" vertex="1">
          <mxGeometry x="240" y="300" width="190" height="30" as="geometry" />
        </mxCell>
        <mxCell id="Rh9CGznedd6ik9ucD9in-35" style="edgeStyle=orthogonalEdgeStyle;rounded=0;orthogonalLoop=1;jettySize=auto;html=1;exitX=0.5;exitY=0;exitDx=0;exitDy=0;entryX=1;entryY=0.5;entryDx=0;entryDy=0;endArrow=block;endFill=0;" parent="1" source="Rh9CGznedd6ik9ucD9in-33" target="Rh9CGznedd6ik9ucD9in-31" edge="1">
          <mxGeometry relative="1" as="geometry">
            <Array as="points">
              <mxPoint x="610" y="315" />
            </Array>
          </mxGeometry>
        </mxCell>
        <mxCell id="Rh9CGznedd6ik9ucD9in-38" style="edgeStyle=orthogonalEdgeStyle;rounded=0;orthogonalLoop=1;jettySize=auto;html=1;exitX=0.5;exitY=1;exitDx=0;exitDy=0;endArrow=block;endFill=0;" parent="1" source="Rh9CGznedd6ik9ucD9in-33" target="Rh9CGznedd6ik9ucD9in-37" edge="1">
          <mxGeometry relative="1" as="geometry" />
        </mxCell>
        <mxCell id="Rh9CGznedd6ik9ucD9in-33" value="&lt;div&gt;Check&amp;nbsp;&lt;/div&gt;&lt;div&gt;Credit&amp;nbsp;&lt;span style=&quot;background-color: initial;&quot;&gt;Score?&lt;/span&gt;&lt;/div&gt;" style="rhombus;whiteSpace=wrap;html=1;" parent="1" vertex="1">
          <mxGeometry x="546.25" y="330" width="127.5" height="80" as="geometry" />
        </mxCell>
        <mxCell id="Rh9CGznedd6ik9ucD9in-36" value="Is not satisfie" style="text;html=1;align=center;verticalAlign=middle;whiteSpace=wrap;rounded=0;" parent="1" vertex="1">
          <mxGeometry x="612.25" y="310" width="90" height="20" as="geometry" />
        </mxCell>
        <mxCell id="Rh9CGznedd6ik9ucD9in-37" value="Repayment Information" style="html=1;align=center;verticalAlign=top;rounded=1;absoluteArcSize=1;arcSize=52;dashed=0;whiteSpace=wrap;" parent="1" vertex="1">
          <mxGeometry x="240" y="450" width="190" height="30" as="geometry" />
        </mxCell>
        <mxCell id="Rh9CGznedd6ik9ucD9in-39" value="Is satisfie" style="text;html=1;align=center;verticalAlign=middle;whiteSpace=wrap;rounded=0;" parent="1" vertex="1">
          <mxGeometry x="612.25" y="410" width="73.75" height="20" as="geometry" />
        </mxCell>
        <mxCell id="Rh9CGznedd6ik9ucD9in-52" style="edgeStyle=orthogonalEdgeStyle;rounded=0;orthogonalLoop=1;jettySize=auto;html=1;exitX=0.75;exitY=0.5;exitDx=0;exitDy=0;exitPerimeter=0;entryX=0.5;entryY=0;entryDx=0;entryDy=0;endArrow=block;endFill=0;" parent="1" source="Rh9CGznedd6ik9ucD9in-44" target="Rh9CGznedd6ik9ucD9in-48" edge="1">
          <mxGeometry relative="1" as="geometry" />
        </mxCell>
        <mxCell id="Rh9CGznedd6ik9ucD9in-63" style="edgeStyle=orthogonalEdgeStyle;rounded=0;orthogonalLoop=1;jettySize=auto;html=1;exitX=0.25;exitY=0.5;exitDx=0;exitDy=0;exitPerimeter=0;entryX=0.5;entryY=0;entryDx=0;entryDy=0;endArrow=block;endFill=0;" parent="1" source="Rh9CGznedd6ik9ucD9in-44" target="Rh9CGznedd6ik9ucD9in-47" edge="1">
          <mxGeometry relative="1" as="geometry" />
        </mxCell>
        <mxCell id="Rh9CGznedd6ik9ucD9in-44" value="" style="shape=line;html=1;strokeWidth=3;strokeColor=#000000;" parent="1" vertex="1">
          <mxGeometry x="481" y="500" width="275" height="10" as="geometry" />
        </mxCell>
        <mxCell id="Rh9CGznedd6ik9ucD9in-47" value="Generate&lt;div&gt;Token&lt;/div&gt;" style="html=1;align=center;verticalAlign=top;rounded=1;absoluteArcSize=1;arcSize=52;dashed=0;whiteSpace=wrap;" parent="1" vertex="1">
          <mxGeometry x="506" y="540" width="106.25" height="40" as="geometry" />
        </mxCell>
        <mxCell id="Rh9CGznedd6ik9ucD9in-48" value="Time&lt;div&gt;Stamp&lt;/div&gt;" style="html=1;align=center;verticalAlign=top;rounded=1;absoluteArcSize=1;arcSize=52;dashed=0;whiteSpace=wrap;" parent="1" vertex="1">
          <mxGeometry x="628.5" y="540" width="106.25" height="40" as="geometry" />
        </mxCell>
        <mxCell id="Rh9CGznedd6ik9ucD9in-53" value="" style="shape=line;html=1;strokeWidth=3;strokeColor=#000000;" parent="1" vertex="1">
          <mxGeometry x="481" y="610" width="275" height="10" as="geometry" />
        </mxCell>
        <mxCell id="Rh9CGznedd6ik9ucD9in-76" value="" style="edgeStyle=orthogonalEdgeStyle;rounded=0;orthogonalLoop=1;jettySize=auto;html=1;endArrow=block;endFill=0;exitX=0.5;exitY=1;exitDx=0;exitDy=0;entryX=0.5;entryY=0;entryDx=0;entryDy=0;" parent="1" source="Rh9CGznedd6ik9ucD9in-66" target="Rh9CGznedd6ik9ucD9in-74" edge="1">
          <mxGeometry relative="1" as="geometry">
            <mxPoint x="611" y="710" as="targetPoint" />
          </mxGeometry>
        </mxCell>
        <mxCell id="Rh9CGznedd6ik9ucD9in-77" style="edgeStyle=orthogonalEdgeStyle;rounded=0;orthogonalLoop=1;jettySize=auto;html=1;exitX=0;exitY=0.5;exitDx=0;exitDy=0;entryX=0;entryY=0.5;entryDx=0;entryDy=0;endArrow=block;endFill=0;" parent="1" source="Rh9CGznedd6ik9ucD9in-66" target="Rh9CGznedd6ik9ucD9in-75" edge="1">
          <mxGeometry relative="1" as="geometry" />
        </mxCell>
        <mxCell id="Rh9CGznedd6ik9ucD9in-66" value="Review Application" style="html=1;align=center;verticalAlign=top;rounded=1;absoluteArcSize=1;arcSize=52;dashed=0;whiteSpace=wrap;" parent="1" vertex="1">
          <mxGeometry x="237.5" y="650" width="190" height="30" as="geometry" />
        </mxCell>
        <mxCell id="Rh9CGznedd6ik9ucD9in-67" style="edgeStyle=orthogonalEdgeStyle;rounded=0;orthogonalLoop=1;jettySize=auto;html=1;exitX=0.511;exitY=0.48;exitDx=0;exitDy=0;endArrow=block;endFill=0;exitPerimeter=0;" parent="1" source="Rh9CGznedd6ik9ucD9in-53" edge="1" target="Rh9CGznedd6ik9ucD9in-66">
          <mxGeometry relative="1" as="geometry">
            <mxPoint x="614" y="650" as="targetPoint" />
            <Array as="points">
              <mxPoint x="622" y="630" />
              <mxPoint x="333" y="630" />
            </Array>
          </mxGeometry>
        </mxCell>
        <mxCell id="Rh9CGznedd6ik9ucD9in-71" style="edgeStyle=orthogonalEdgeStyle;rounded=0;orthogonalLoop=1;jettySize=auto;html=1;exitX=0.5;exitY=1;exitDx=0;exitDy=0;entryX=0.28;entryY=0.56;entryDx=0;entryDy=0;entryPerimeter=0;endArrow=block;endFill=0;" parent="1" source="Rh9CGznedd6ik9ucD9in-47" target="Rh9CGznedd6ik9ucD9in-53" edge="1">
          <mxGeometry relative="1" as="geometry" />
        </mxCell>
        <mxCell id="Rh9CGznedd6ik9ucD9in-72" style="edgeStyle=orthogonalEdgeStyle;rounded=0;orthogonalLoop=1;jettySize=auto;html=1;exitX=0.5;exitY=1;exitDx=0;exitDy=0;entryX=0.725;entryY=0.72;entryDx=0;entryDy=0;entryPerimeter=0;endArrow=block;endFill=0;" parent="1" source="Rh9CGznedd6ik9ucD9in-48" target="Rh9CGznedd6ik9ucD9in-53" edge="1">
          <mxGeometry relative="1" as="geometry" />
        </mxCell>
        <mxCell id="Rh9CGznedd6ik9ucD9in-73" style="edgeStyle=orthogonalEdgeStyle;rounded=0;orthogonalLoop=1;jettySize=auto;html=1;exitX=1;exitY=0.5;exitDx=0;exitDy=0;entryX=0.469;entryY=0.52;entryDx=0;entryDy=0;entryPerimeter=0;endArrow=block;endFill=0;" parent="1" source="Rh9CGznedd6ik9ucD9in-37" target="Rh9CGznedd6ik9ucD9in-44" edge="1">
          <mxGeometry relative="1" as="geometry" />
        </mxCell>
        <mxCell id="s07SrZqtTlnFNTkNtbkQ-10" style="edgeStyle=orthogonalEdgeStyle;rounded=0;orthogonalLoop=1;jettySize=auto;html=1;exitX=1;exitY=0.5;exitDx=0;exitDy=0;entryX=0;entryY=0.5;entryDx=0;entryDy=0;" edge="1" parent="1" source="Rh9CGznedd6ik9ucD9in-74" target="Rh9CGznedd6ik9ucD9in-79">
          <mxGeometry relative="1" as="geometry" />
        </mxCell>
        <mxCell id="Rh9CGznedd6ik9ucD9in-74" value="Click on Submit" style="html=1;align=center;verticalAlign=top;rounded=1;absoluteArcSize=1;arcSize=52;dashed=0;whiteSpace=wrap;" parent="1" vertex="1">
          <mxGeometry x="237.5" y="720" width="190" height="30" as="geometry" />
        </mxCell>
        <mxCell id="Rh9CGznedd6ik9ucD9in-78" style="edgeStyle=orthogonalEdgeStyle;rounded=0;orthogonalLoop=1;jettySize=auto;html=1;exitX=0.5;exitY=1;exitDx=0;exitDy=0;entryX=0;entryY=0.5;entryDx=0;entryDy=0;endArrow=block;endFill=0;" parent="1" source="Rh9CGznedd6ik9ucD9in-75" target="Rh9CGznedd6ik9ucD9in-2" edge="1">
          <mxGeometry relative="1" as="geometry">
            <mxPoint x="640" y="390" as="targetPoint" />
            <Array as="points">
              <mxPoint x="335" y="850" />
              <mxPoint x="170" y="850" />
              <mxPoint x="170" y="135" />
            </Array>
          </mxGeometry>
        </mxCell>
        <mxCell id="Rh9CGznedd6ik9ucD9in-75" value="Click on Cancel" style="html=1;align=center;verticalAlign=top;rounded=1;absoluteArcSize=1;arcSize=52;dashed=0;whiteSpace=wrap;" parent="1" vertex="1">
          <mxGeometry x="237.5" y="770" width="190" height="30" as="geometry" />
        </mxCell>
        <mxCell id="Rh9CGznedd6ik9ucD9in-79" value="" style="ellipse;html=1;shape=endState;fillColor=strokeColor;" parent="1" vertex="1">
          <mxGeometry x="590" y="720" width="30" height="30" as="geometry" />
        </mxCell>
        <mxCell id="Rh9CGznedd6ik9ucD9in-81" value="End" style="text;html=1;align=center;verticalAlign=middle;whiteSpace=wrap;rounded=0;" parent="1" vertex="1">
          <mxGeometry x="612.25" y="720" width="60" height="30" as="geometry" />
        </mxCell>
        <mxCell id="s07SrZqtTlnFNTkNtbkQ-12" value="Applicant" style="swimlane;whiteSpace=wrap;html=1;" vertex="1" parent="1">
          <mxGeometry x="120" y="30" width="350" height="850" as="geometry" />
        </mxCell>
        <mxCell id="s07SrZqtTlnFNTkNtbkQ-13" value="Loan Management System" style="swimlane;whiteSpace=wrap;html=1;" vertex="1" parent="1">
          <mxGeometry x="470" y="30" width="300" height="850" as="geometry" />
        </mxCell>
      </root>
    </mxGraphModel>
  </diagram>
</mxfile>
